# xmcd CD database file
#
# Track frame offsets:
#	150
#	14841
#	25255
#	45363
#	61246
#	78934
#	93757
#	106328
#	119444
#	144813
#	160715
#	170809
#
# Disc length: 2630 seconds
#
# Revision: 0
# Processed by: cddbd v1.5.1PL0 Copyright (c) Steve Scherf et al.
# Submitted via: CDex 1.51
#
DISCID=8e0a440c
DTITLE=Alex Whitmore - Eclectex
DYEAR=2004
DGENRE=Country
TTITLE0=Fort Worth Tonight
TTITLE1=Stranded
TTITLE2=Ghost Freight
TTITLE3=Me And Max
TTITLE4=Deep River Blues
TTITLE5=Baby Drives A Cadillac
TTITLE6=Chet
TTITLE7=Herleigh
TTITLE8=Wind Blowing Me
TTITLE9=Reflections
TTITLE10=Love Can See
TTITLE11=Feelings Of Christmas
EXTD=YEAR: 2004
EXTT0=
EXTT1=
EXTT2=
EXTT3=
EXTT4=
EXTT5=
EXTT6=
EXTT7=
EXTT8=
EXTT9=
EXTT10=
EXTT11=
PLAYORDER=
